# xmcd
# 
# Track frame offsets:
#     183
#     65658
#     85583
#     94858
#     107033
#     134558
#     149983
#     165865
#     178395
#     202015
#     223378
#     244988
#     262183
# 
# Disc length: 3892
# 
# Revision: 16
# Processed by: cddbd v1.5.2PL0 Copyright (c) Steve Scherf et al.
# Submitted via: fre:ac v1.1beta1pre5
# 
DISCID=d70f320d
DTITLE=Ravel, Maurice - Bolero, Rhapsodie Espagnole, Ma Mère L'Oye, Pavanne par infante Défunte - London Symphony Orchestra - Abbado - Ravel, Maurice - Bolero, Rhapsodie Espagnole, Ma Mère L'Oye, Pavanne par infante Défunte - London Symphony Orchestra - A
DTITLE=bbado
DYEAR=1985
DGENRE=Orchestral
TTITLE0=Ravel, Maurice - Bolero - Tempo di Bolero moderato assai
TTITLE1=Ravel, Maurice - Rapsodie Espagnole - 1.  Prélude à la nuit. Très modéré
TTITLE2=Ravel, Maurice - Rapsodie Espagnole - 2. Malagueña. Assez vif
TTITLE3=Ravel, Maurice - Rapsodie Espagnole - 3. Habanera: Assez lent et d'un rythme las
TTITLE4=Ravel, Maurice - Rapsodie Espagnole - 4. Feria. Assez animé
TTITLE5=Ravel, Maurice - Ma Mère l'Oye - 1. Prélude. Très lent
TTITLE6=Ravel, Maurice - Ma Mère l'Oye - 2. 1er Tableau: Danse du Rouet et Scène - Allegro
TTITLE7=Ravel, Maurice - Ma Mère l'Oye - 3. 2e Tableau: Pavane de la Belle au Bois Dormant - Lent - Allegro - Mouvement de Valse modéré
TTITLE8=Ravel, Maurice - Ma Mère l'Oye - 4. 3e Tableau: Les Entretiens de la Belle et de la Bête. Mouvement de Valse modéré
TTITLE9=Ravel, Maurice - Ma Mère l'Oye - 5. 4e Tableau: Petit Poucet - Très modéré
TTITLE10=Ravel, Maurice - Ma Mère l'Oye - 6. Laideronnette, Impératrice des Pagodes. Mouvement de Marche - Allegro - Très modéré
TTITLE11=Ravel, Maurice - Ma Mère l'Oye - 7. Apotheose: Le Jardin Féerique. Lent et grave
TTITLE12=Ravel, Maurice - Pavane pour une Infante Défunte: Lent
EXTD=Ravel, Maurice \nBolero\nRhapsodie Espagnole\nMa Mère L'Oye\nPavanne par infante Défunte \n\nDirigent - Abbado\nLondon Symphony Orchestra YEAR: 1985
EXTT0=
EXTT1=I
EXTT2=II
EXTT3=III
EXTT4=IV
EXTT5=I
EXTT6=II
EXTT7=III
EXTT8=IV
EXTT9=V
EXTT10=VI
EXTT11=VII
EXTT12=
PLAYORDER=
